<?xml version="1.0" encoding="UTF-8"?>
<svg width="256px" height="256px" viewBox="0 0 256 256" xmlns="http://www.w3.org/2000/svg">
    <path fill="#FF0000" d="M175.4 2.2C150.7-3.4 74.6 30.2 32.8 95.8c-41.8 65.6-42.8 129.5-18.1 135.1 24.7 5.6 100.8-28 142.6-93.6 41.8-65.6 42.8-129.5 18.1-135.1zM60.2 189.3c-15.8 3.6-31.5-8.5-35.1-24.3-3.6-15.8 8.5-31.5 24.3-35.1 15.8-3.6 31.5 8.5 35.1 24.3 3.6 15.8-8.5 31.5-24.3 35.1z"/>
    <path fill="#C30000" d="M241.3 60.2c-24.7-5.6-100.8 28-142.6 93.6-41.8 65.6-42.8 129.5-18.1 135.1 24.7 5.6 100.8-28 142.6-93.6 41.8-65.6 42.8-129.5 18.1-135.1zM126.1 247.3c-15.8 3.6-31.5-8.5-35.1-24.3-3.6-15.8 8.5-31.5 24.3-35.1 15.8-3.6 31.5 8.5 35.1 24.3 3.6 15.8-8.5 31.5-24.3 35.1z"/>
</svg>